<svg width="108" height="42" viewBox="0 0 108 42" fill="none" xmlns="http://www.w3.org/2000/svg">
<path d="M0.0939869 11.5764C0.203057 10.5265 0.416152 9.49012 0.730126 8.48242C1.05401 7.38206 1.52405 6.33012 2.12769 5.35476C2.69504 4.41667 3.43985 3.5982 4.32043 2.94515C5.1979 2.30705 6.26832 1.99052 7.35171 2.04878C7.83265 2.0667 8.30982 2.1411 8.77338 2.27046C9.23258 2.3957 9.65976 2.6175 10.0264 2.92106C10.8442 3.48717 11.507 4.24937 11.9541 5.13789C12.404 6.01336 12.7285 6.94782 12.9179 7.91375C13.1082 8.58317 13.223 9.27178 13.2601 9.96674C13.3034 10.6703 13.3131 11.3643 13.289 12.0438V12.3956C13.248 13.6436 13.0866 14.8847 12.8071 16.1016C12.6069 17.0028 12.3477 17.8898 12.0312 18.757C11.6939 19.6894 11.2962 20.599 10.8408 21.4798C10.3941 22.3619 9.88185 23.2093 9.30831 24.0147C8.76728 24.7828 8.14347 25.489 7.4481 26.1207C7.20232 26.3231 6.96618 26.5014 6.7204 26.6653C6.49035 26.8218 6.25051 26.9635 6.00234 27.0894C5.75872 27.2513 5.49864 27.387 5.22644 27.4942C4.97699 27.59 4.71872 27.661 4.45537 27.7062C4.11155 27.8152 3.7498 27.8561 3.39033 27.8267C3.20696 27.834 3.02351 27.8145 2.84576 27.7689C2.31507 27.7069 1.8013 27.5433 1.33253 27.287C1.29061 27.2395 1.23764 27.2031 1.17831 27.1809C1.11568 27.1649 1.05887 27.1315 1.01446 27.0846C0.949161 27.0168 0.891023 26.9425 0.840965 26.8629C0.791617 26.8005 0.761476 26.7252 0.75422 26.646C0.773647 26.6228 0.798017 26.6043 0.825538 26.5918C0.853058 26.5793 0.88303 26.5731 0.913254 26.5737H1.01446C1.20186 26.5904 1.37508 26.6805 1.49638 26.8243C1.92207 27.0801 2.39642 27.2442 2.88913 27.3062H3.08672C3.51388 27.3137 3.9392 27.2485 4.34453 27.1135C4.82405 26.9012 5.2653 26.6114 5.65054 26.2557C6.04789 25.8996 6.40797 25.504 6.72522 25.075C7.33651 24.1209 7.89322 23.133 8.39266 22.116C8.78494 21.2215 9.1229 20.3042 9.4047 19.369C9.71313 18.357 9.983 17.3257 10.2143 16.2606C10.4456 15.1956 10.6384 14.1305 10.7926 13.0655C10.9395 12.0818 11.0312 11.0907 11.0673 10.0969C11.0673 9.57638 11.0914 9.02699 11.0673 8.45351C11.0587 7.88636 11.0056 7.32077 10.9083 6.76197C10.8059 6.21124 10.6443 5.67319 10.4264 5.15717C10.2129 4.64756 9.90926 4.18065 9.52999 3.77888C9.21308 3.37886 8.78834 3.07787 8.30592 2.91142C7.83621 2.74648 7.35222 2.62548 6.86015 2.54998C6.35873 2.53412 5.86143 2.64519 5.41439 2.87286C4.96168 3.10879 4.54335 3.40551 4.17104 3.75478C3.63457 4.21197 3.16708 4.74439 2.7831 5.33548C2.37644 5.96834 2.02341 6.63411 1.7277 7.32581C1.41599 8.03366 1.16136 8.7653 0.966266 9.51373C0.784176 10.204 0.650519 10.9061 0.566271 11.6149C0.527717 11.9282 0.50362 12.2366 0.493982 12.5354C0.483958 12.843 0.500079 13.1509 0.542173 13.4558C0.542173 13.5908 0.585548 13.7257 0.604825 13.8703C0.62704 14.0115 0.662539 14.1502 0.710848 14.2847C0.807233 14.4968 0.918074 14.7185 1.03855 14.945C1.0976 15.0536 1.17941 15.1481 1.2784 15.2221C1.37738 15.2962 1.49119 15.3479 1.61204 15.3739C1.6707 15.4113 1.74071 15.4266 1.80963 15.4173L1.84336 13.186C1.84336 12.8486 1.84336 12.5161 1.84336 12.1884C1.84336 11.8607 1.84336 11.5426 1.84336 11.2245C1.84336 11.0944 1.84336 10.9499 1.84336 10.7908C1.84336 10.6318 1.84336 10.492 1.84336 10.3619L1.78071 9.96674L1.89155 10.0872H1.97348C2.00585 10.1146 2.04673 10.13 2.08914 10.1306H2.28191C2.32482 10.1343 2.36762 10.1223 2.40239 10.0969L2.64335 9.98601C2.66175 9.94187 2.68974 9.90236 2.72528 9.87035C2.75269 9.83798 2.76802 9.79711 2.76865 9.75469C2.81887 9.65762 2.8546 9.5537 2.87467 9.44626C2.89019 9.34047 2.91272 9.23582 2.94214 9.13301C2.9444 8.93062 2.99217 8.73132 3.0819 8.54989L3.2843 8.32339C3.31484 8.28508 3.35721 8.25796 3.40478 8.24628C3.44715 8.2454 3.4886 8.2338 3.52526 8.21255H3.79996H3.9349C3.99754 8.21255 4.03128 8.26074 4.02646 8.31375L4.14212 8.35712L4.33007 8.63664C4.3739 8.74374 4.3968 8.85825 4.39754 8.97398C4.36677 9.06415 4.36341 9.16142 4.3879 9.25349C4.38033 9.32397 4.38033 9.39506 4.3879 9.46554C4.39451 9.52479 4.39451 9.5846 4.3879 9.64385V10.2703C4.41433 10.3861 4.41433 10.5064 4.3879 10.6221C4.39227 10.7072 4.39227 10.7925 4.3879 10.8776C4.36752 11.0262 4.35466 11.1758 4.34935 11.3258L4.05056 14.4149C4.35799 14.1567 4.65081 13.8815 4.92765 13.5908C5.22644 13.2727 5.56379 12.9016 5.94451 12.4679C6.19029 12.1643 6.38787 12.0101 6.54691 12.0149C6.70594 12.0197 6.73968 12.0775 6.73486 12.1788C6.66682 12.4564 6.5234 12.7099 6.3204 12.9113C5.93969 13.345 5.56861 13.7498 5.20235 14.1257C4.8263 14.5148 4.4149 14.8682 3.97345 15.1811L3.38069 21.1569L3.31804 23.0846C3.31804 23.2437 3.31804 23.393 3.31804 23.5376C3.32772 23.6869 3.32772 23.8366 3.31804 23.9858L3.38551 24.381L3.45297 24.7376L2.97105 25.2677C2.87222 25.3891 2.73096 25.4683 2.57588 25.4894C2.54178 25.5165 2.49892 25.5303 2.4554 25.528C2.41929 25.5277 2.38434 25.5151 2.35631 25.4924C2.32829 25.4696 2.30884 25.4379 2.30118 25.4027C2.25807 25.2862 2.22265 25.1671 2.19516 25.046C2.1822 24.9649 2.15955 24.8856 2.12769 24.8099L2.02649 24.2557C1.98298 24.082 1.95715 23.9044 1.94938 23.7256C1.94938 23.5569 1.92529 23.3786 1.90601 23.1955C1.86746 22.8292 1.83854 22.4822 1.82408 22.1545C1.80963 21.8268 1.79517 21.4943 1.78071 21.1521C1.74858 19.7931 1.74858 18.4485 1.78071 17.1184V16.0582C1.6024 16.0582 1.49638 16.0582 1.47228 16.01C1.15496 15.9197 0.882123 15.7155 0.706028 15.4365C0.473739 15.1806 0.321308 14.8623 0.267479 14.5209C0.142232 14.2055 0.0689939 13.8718 0.0506158 13.5329C0.0245128 13.3833 0.0100138 13.2318 0.0072447 13.0799C-0.0024149 12.8921 -0.0024149 12.7039 0.0072447 12.5161V12.0824C0.0198377 11.9113 0.0488837 11.7418 0.0939869 11.5764ZM13.0625 16.7907C13.1709 16.2756 13.3191 15.7697 13.5058 15.2775C13.7054 14.7319 13.9455 14.2019 14.2239 13.692C14.4936 13.1926 14.8168 12.724 15.1877 12.2944C15.537 11.8938 15.9527 11.5563 16.4166 11.2968C16.6517 11.1528 16.9066 11.044 17.1733 10.974C17.3604 10.901 17.5604 10.8666 17.7612 10.8727L18.0744 10.9643C18.1724 10.9846 18.2653 11.024 18.348 11.0802C18.4307 11.1365 18.5015 11.2084 18.5564 11.292C18.6365 11.3804 18.687 11.4916 18.7009 11.6101C18.7238 11.7259 18.7335 11.8439 18.7299 11.9619C18.7009 12.092 18.6672 12.2077 18.6383 12.3137C18.6176 12.3936 18.5885 12.4712 18.5515 12.545C18.4859 12.7222 18.3878 12.8856 18.2624 13.0269C18.1169 13.2716 17.9312 13.4899 17.713 13.6727C17.4592 13.8976 17.1845 14.1241 16.8889 14.3522C16.5901 14.5739 16.2913 14.7811 15.9829 14.9691C15.7323 15.1246 15.4733 15.2662 15.207 15.3932C15.1445 15.6489 15.0962 15.9079 15.0624 16.1691C15.0287 16.4293 14.9902 16.704 14.9564 16.9883L14.8986 18.675C14.8982 18.8973 14.9111 19.1194 14.9371 19.3401C14.9677 19.6336 15.0242 19.9239 15.1058 20.2076C15.1798 20.4822 15.2815 20.7486 15.4094 21.0027C15.4976 21.2004 15.6416 21.3679 15.8239 21.4846C15.8987 21.5481 15.9853 21.5961 16.0788 21.6259C16.1723 21.6557 16.2707 21.6666 16.3684 21.6581C16.4457 21.6308 16.5246 21.6082 16.6046 21.5907C16.7255 21.5625 16.8446 21.5271 16.9612 21.4846V21.4461C17.342 21.2392 17.6714 20.9493 17.9251 20.5979C18.277 20.1607 18.599 19.7002 18.8889 19.2196C19.1925 18.7377 19.472 18.2172 19.7226 17.7208C19.9732 17.2245 20.1563 16.81 20.272 16.5016C20.3588 16.2944 20.4551 16.1932 20.5563 16.198C20.5939 16.1935 20.6321 16.198 20.6676 16.211C20.7031 16.224 20.7351 16.2453 20.7609 16.273C20.7868 16.3006 20.8057 16.334 20.8162 16.3704C20.8267 16.4068 20.8285 16.4451 20.8214 16.4823L20.7346 16.7907C20.4792 17.3835 20.2094 17.957 19.9298 18.5112C19.6531 19.0588 19.3475 19.5912 19.0142 20.1063C18.7443 20.463 18.4552 20.81 18.1564 21.1521C17.863 21.4926 17.524 21.7909 17.1492 22.0388C17.0216 22.1117 16.8877 22.173 16.7492 22.222C16.6207 22.2702 16.4761 22.3184 16.3154 22.3666C16.2544 22.3972 16.1851 22.4073 16.1178 22.3955L15.9203 22.4292H15.6841C15.5829 22.4292 15.5154 22.4292 15.4914 22.381C15.3612 22.381 15.2841 22.381 15.26 22.3328H15.3371C15.3371 22.3328 15.2456 22.275 15.0673 22.2461C15.0047 22.2149 14.9382 22.1922 14.8697 22.1786C14.7975 22.1668 14.7313 22.1312 14.6817 22.0774C14.5426 22.028 14.4124 21.9564 14.2962 21.8654L13.954 21.5425C13.61 21.1896 13.3368 20.7741 13.1492 20.3184C12.9803 19.8426 12.886 19.3435 12.8697 18.8389V18.41C12.8908 17.866 12.9552 17.3245 13.0625 16.7907ZM15.395 14.5546L16.0359 14.1884C16.3315 13.986 16.6528 13.7354 16.9998 13.4366C17.3245 13.1787 17.6203 12.8862 17.8817 12.5643C17.9198 12.4438 17.9917 12.3367 18.0889 12.2559C18.1178 12.1257 18.1419 12.0245 18.1564 11.9474C18.16 11.8945 18.16 11.8413 18.1564 11.7884C18.1354 11.7681 18.1233 11.7404 18.1226 11.7113C18.0946 11.6758 18.0597 11.6463 18.0199 11.6248C17.9801 11.6032 17.9364 11.59 17.8913 11.586C17.8672 11.5571 17.7901 11.5426 17.6552 11.5378C17.5204 11.5419 17.3878 11.573 17.2653 11.6293C17.1428 11.6856 17.0328 11.7659 16.9419 11.8655C16.8347 11.9157 16.7382 11.986 16.6576 12.0727L16.4166 12.3571C16.1729 12.6852 15.9691 13.0411 15.8094 13.4173C15.6889 13.7884 15.5395 14.1691 15.395 14.5546ZM19.8094 22.7473C20.0792 22.1719 20.4628 21.6571 20.9371 21.234C21.4623 20.7521 21.9539 20.3232 22.4069 19.9714L22.084 19.6871C21.9973 19.6052 21.9009 19.5136 21.7997 19.4027C21.6042 19.2323 21.4221 19.047 21.2551 18.8485C21.0912 18.6428 20.9476 18.4217 20.8262 18.1883C20.507 17.7072 20.3392 17.1416 20.3443 16.5642C20.2863 16.1857 20.3127 15.7989 20.4214 15.4317C20.5753 14.7866 20.8203 14.1667 21.1491 13.5908C21.4618 13.0328 21.8475 12.5191 22.2961 12.0631C22.4974 11.76 22.7969 11.5354 23.1443 11.427C23.2234 11.3775 23.3095 11.3401 23.3997 11.3161C23.4951 11.2866 23.5848 11.241 23.6647 11.1812C23.7934 11.1572 23.9243 11.1475 24.0551 11.1523H24.2141C24.2612 11.1798 24.314 11.1962 24.3683 11.2005C24.3982 11.203 24.4273 11.2115 24.4539 11.2256C24.4804 11.2397 24.5037 11.259 24.5225 11.2824C24.6761 11.3659 24.7954 11.5006 24.8599 11.6631C24.9319 11.8338 24.979 12.0139 24.9997 12.198C25.0134 12.3704 24.9938 12.5439 24.9418 12.7089C24.8888 12.7812 24.8358 12.8197 24.7828 12.8197C24.6286 12.8197 24.5418 12.6414 24.5274 12.2992C24.5012 12.2427 24.4833 12.1826 24.4744 12.1209C24.4618 12.0539 24.43 11.9919 24.3828 11.9426C24.3359 11.9186 24.2908 11.8912 24.2479 11.8607C24.2049 11.8302 24.1598 11.8028 24.1129 11.7788C23.7672 11.7671 23.4276 11.8723 23.1491 12.0775C22.3535 12.6396 21.7723 13.4552 21.5009 14.3908C21.2973 15.006 21.3178 15.6735 21.5587 16.2751C21.6559 16.5752 21.8208 16.8489 22.0407 17.0751C22.2713 17.2952 22.5268 17.4877 22.8021 17.6486C23.0864 17.8172 23.3659 17.9714 23.6503 18.1305L24.3442 18.5064C24.8503 18.1546 25.3611 17.8269 25.8671 17.5425C26.3731 17.2582 26.8791 16.9016 27.39 16.5787C27.655 16.4293 27.8237 16.4486 27.896 16.6317C27.9683 16.8148 27.896 16.9739 27.602 17.1715C27.149 17.4478 26.696 17.7273 26.243 18.01C25.79 18.2943 25.337 18.5979 24.8792 18.9208C25.059 19.0065 25.2159 19.1337 25.337 19.2919C25.635 19.5776 25.8527 19.9366 25.9683 20.3328C26.1367 20.757 26.1752 21.2216 26.0791 21.6678L26.031 21.981C25.8504 22.6496 25.4785 23.2509 24.9611 23.7111C24.4522 24.1984 23.8463 24.5728 23.1828 24.8099C22.5568 25.049 21.8822 25.1334 21.2166 25.0557C21.0575 25.0268 20.8985 24.9882 20.7346 24.94C20.5542 24.8912 20.3886 24.7985 20.2527 24.6701L20.0262 24.4292C19.9826 24.4087 19.9482 24.3726 19.9298 24.328C19.9034 24.2724 19.8616 24.2256 19.8094 24.193L19.6985 23.9521C19.6979 23.9229 19.6857 23.8952 19.6648 23.875C19.6309 23.7726 19.621 23.6637 19.6359 23.5569C19.6359 23.5087 19.6359 23.4798 19.5973 23.4798C19.6028 23.2213 19.6759 22.9687 19.8094 22.7473ZM20.1708 23.6581L20.2094 23.7015L20.2431 23.8171C20.2644 23.8429 20.2838 23.8703 20.3009 23.8991C20.3231 23.9345 20.3549 23.9629 20.3925 23.981C20.4028 24.0183 20.4224 24.0524 20.4493 24.0802C20.4763 24.108 20.5097 24.1285 20.5467 24.14C20.6479 24.1979 20.7588 24.2557 20.8744 24.3087C21.0152 24.374 21.1644 24.4194 21.3178 24.4436C21.9046 24.5521 22.5106 24.4764 23.0527 24.2268C23.3075 24.1593 23.5488 24.0485 23.7659 23.8991C24.0101 23.7529 24.245 23.5919 24.4695 23.4171C24.5948 23.3169 24.6908 23.1848 24.7476 23.0348C24.8044 22.8847 24.8199 22.7222 24.7924 22.5641C24.7807 22.5549 24.7712 22.5432 24.7645 22.5299C24.7579 22.5166 24.7542 22.5019 24.7539 22.487C24.7579 22.4534 24.7579 22.4194 24.7539 22.3858C24.7436 22.3414 24.7436 22.2953 24.7539 22.2509C24.7243 22.1579 24.6804 22.0701 24.6238 21.9907C24.5611 21.8991 24.5033 21.8075 24.4551 21.7304L23.9732 21.2485C23.7948 21.0846 23.6165 20.9304 23.4382 20.7666C23.2599 20.6027 23.0816 20.4726 22.9081 20.3377C22.8638 20.354 22.8229 20.3785 22.7876 20.41C22.7509 20.4393 22.7104 20.4637 22.6671 20.4822C22.2623 20.81 21.8816 21.1425 21.5154 21.4846C21.148 21.8265 20.814 22.2024 20.5178 22.6075L20.2672 23.0894C20.2383 23.0894 20.2238 23.2196 20.219 23.3979C20.219 23.4509 20.219 23.4798 20.1756 23.475C20.1082 23.5569 20.1178 23.6244 20.1467 23.6485L20.1708 23.6581ZM27.0864 19.5039L27.1924 18.6461C27.3688 16.3888 28.0173 14.1936 29.096 12.2028C29.149 12.1547 29.1875 12.1257 29.2165 12.1306L29.3707 12.2125C29.3896 12.2366 29.4173 12.2522 29.4478 12.2559C29.4635 12.2423 29.482 12.2322 29.5019 12.2264C29.5219 12.2205 29.5429 12.2191 29.5634 12.2221C29.7466 12.2221 29.8381 12.3089 29.8333 12.4631V12.5016C29.7707 12.892 29.7176 13.2679 29.6791 13.6342C29.6405 14.0004 29.5875 14.3619 29.5249 14.7281L29.2261 16.9642C29.1875 17.3305 29.1586 17.6341 29.1345 17.8799C29.1104 18.1257 29.1008 18.304 29.1008 18.41V18.8003C29.0925 18.92 29.1022 19.0402 29.1297 19.157L29.1683 20.2509C29.2022 20.5989 29.27 20.9426 29.3707 21.2774C29.5345 21.8605 29.7707 22.1545 30.0839 22.1641C30.2446 22.1641 30.3361 22.1545 30.3586 22.1352C30.4963 22.0844 30.6202 22.0019 30.72 21.8943C30.8309 21.7786 30.9369 21.6581 31.0478 21.5328C31.5468 20.8524 31.9656 20.1166 32.2959 19.3401C32.6333 18.5401 32.9995 17.7546 33.3947 16.9835C33.4525 16.7811 33.5489 16.6751 33.679 16.6799C33.7272 16.6799 33.7802 16.7329 33.8284 16.8245C33.8686 16.8904 33.8933 16.9645 33.9007 17.0413C33.8791 17.1398 33.8501 17.2364 33.814 17.3305C33.789 17.3902 33.76 17.4482 33.7272 17.504C33.5055 17.9425 33.2983 18.3811 33.1152 18.8196C32.9321 19.2582 32.7297 19.6919 32.5031 20.1304L32.1706 20.7473C31.8812 21.3011 31.5163 21.812 31.0863 22.2654C30.6319 22.7019 30.0642 23.0024 29.4478 23.1328C29.1753 23.1759 28.8994 23.1937 28.6237 23.1858C28.3528 23.1715 28.0948 23.0662 27.8912 22.887L27.5876 22.5208L27.3659 22.1256C27.2659 21.843 27.1965 21.5506 27.1587 21.2533C27.093 20.9576 27.0639 20.6549 27.0719 20.3521C27.0556 20.208 27.0556 20.0625 27.0719 19.9184L27.0864 19.5039ZM29.1104 8.20773V8.08725C29.1345 8.08725 29.1634 8.0005 29.1972 7.81737L29.2839 7.6246C29.3075 7.60598 29.327 7.58265 29.3411 7.55611C29.3552 7.52956 29.3636 7.50037 29.3659 7.47039C29.4196 7.35014 29.4825 7.23414 29.5538 7.12341C29.6213 7.02381 29.6839 6.92261 29.7417 6.8198C29.7931 6.71761 29.8545 6.62075 29.9249 6.53064C30.0011 6.42974 30.0642 6.31964 30.1128 6.20294L30.1562 6.16438C30.1562 6.16438 30.2188 6.1933 30.267 6.24631C30.3401 6.49105 30.3854 6.74324 30.402 6.99811C30.402 7.25834 30.402 7.51858 30.402 7.77882L30.4116 7.80773L30.4405 8.12098C30.4384 8.14263 30.4407 8.16449 30.4473 8.18522C30.454 8.20594 30.4648 8.22508 30.4791 8.24146C30.4442 8.28497 30.427 8.34004 30.4309 8.39568C30.4035 8.42804 30.3881 8.46892 30.3875 8.51134L30.267 8.62218C30.2661 8.63695 30.2622 8.65139 30.2556 8.66463C30.2489 8.67788 30.2397 8.68966 30.2285 8.69928L29.8237 9.00289C29.8237 9.00289 29.7321 9.03663 29.6261 9.03181H29.5875L29.4767 8.91133C29.4478 8.91133 29.4092 8.88241 29.361 8.8294L29.2116 8.627C29.1827 8.6029 29.1731 8.54989 29.1779 8.46796C29.1742 8.43863 29.1606 8.41143 29.1393 8.39086V8.42941L29.1104 8.20773ZM32.9658 18.0919C33.1723 17.3006 33.4973 16.5451 33.9296 15.851C34.3459 15.1406 34.8843 14.5092 35.52 13.986C35.732 13.8366 35.9344 13.6872 36.1224 13.5329C36.3076 13.386 36.526 13.2867 36.7585 13.2438C36.7874 13.2438 36.8212 13.2823 36.8742 13.3643V13.639C36.8759 13.6814 36.8691 13.7237 36.8542 13.7634C36.8393 13.8031 36.8166 13.8395 36.7874 13.8703C36.4983 13.8703 36.2621 14.0872 36.079 14.4727C35.8959 14.8582 35.7513 15.1811 35.6356 15.4365C35.4341 16.0142 35.2731 16.6052 35.1537 17.2052C35.0429 17.7883 34.9513 18.3811 34.879 18.9787V19.5666C34.8516 19.7616 34.8516 19.9595 34.879 20.1545L34.9802 20.6654L35.2019 21.0268C35.2501 21.0798 35.2886 21.1087 35.3176 21.1087C35.3714 21.1183 35.4268 21.1062 35.4718 21.075C35.6095 21.0242 35.7333 20.9416 35.8332 20.834C35.9441 20.7184 36.0501 20.5979 36.1609 20.4726C36.5477 19.8557 36.8892 19.2114 37.1826 18.5449C37.4814 17.8799 37.7705 17.21 38.0549 16.5401L39.0187 13.9426C39.028 13.8971 39.0539 13.8566 39.0912 13.829C39.1286 13.8014 39.1749 13.7887 39.2211 13.7932H39.3368C39.3999 13.8093 39.4645 13.819 39.5296 13.8221C39.6597 13.8221 39.7609 13.9329 39.8332 14.145C40.0324 15.2727 40.193 16.4084 40.3151 17.5522C40.45 18.6895 40.5464 19.8509 40.6139 21.0268C40.9665 20.3803 41.3727 19.7645 41.8283 19.1859C42.3102 18.5787 42.7922 18.0196 43.2355 17.5088C43.5632 17.104 43.809 16.9016 43.9632 16.9064C44.0233 16.916 44.078 16.9468 44.1174 16.9931C44.1288 17.0024 44.1378 17.0142 44.1437 17.0276C44.1496 17.041 44.1521 17.0556 44.1512 17.0702C44.0389 17.4086 43.8414 17.7123 43.5777 17.9522C43.2211 18.357 42.8837 18.7811 42.556 19.21C42.2283 19.6389 41.8958 20.0919 41.5681 20.5497C41.5146 20.674 41.4449 20.7907 41.3609 20.8967C41.2733 21.0066 41.1912 21.1208 41.1151 21.2389L40.6332 21.928C40.6621 22.5304 40.6813 23.1328 40.6862 23.7352C40.691 24.3376 40.6862 24.9352 40.6862 25.5376C40.6862 25.6918 40.6573 26.14 40.6235 26.887C40.5898 27.6339 40.4741 28.6749 40.3006 30.0291C40.1946 30.7809 40.05 31.6724 39.8573 32.6989C39.6645 33.7254 39.4235 34.7664 39.1247 35.8266C38.8421 36.851 38.4878 37.8543 38.0645 38.829C37.722 39.6586 37.2322 40.4195 36.6188 41.0747C36.4297 41.3266 36.1981 41.5435 35.9344 41.7157C35.6677 41.8725 35.3701 41.9696 35.0621 42H34.8646C34.5159 41.9828 34.1803 41.862 33.9007 41.653C33.5694 41.4201 33.293 41.1174 33.0911 40.7663L32.7682 39.894C32.7201 39.7367 32.6862 39.5754 32.667 39.4121C32.667 39.2434 32.6236 39.0796 32.6044 38.9302C32.5776 38.828 32.5679 38.7222 32.5754 38.6169V38.3037C32.5754 38.1976 32.5754 38.0434 32.6092 37.8217C32.6429 37.6001 32.6718 37.3398 32.7345 37.041C32.9281 35.9215 33.2266 34.8227 33.626 33.7592C34.0598 32.5833 34.561 31.3977 35.1393 30.2026C35.7176 29.0074 36.32 27.8556 36.9609 26.7376C37.6019 25.6195 38.2043 24.6316 38.7826 23.7641C38.9223 22.7473 39.0139 21.7352 39.0621 20.7184C39.1103 19.7015 39.1488 18.6799 39.1826 17.663C39.1826 17.3787 39.1826 17.0847 39.1826 16.7811C39.1826 16.4775 39.1826 16.1883 39.1537 15.8992C39.1537 15.7691 39.1537 15.6389 39.1537 15.5088C39.1444 15.3764 39.1283 15.2445 39.1055 15.1137L38.9753 15.504C38.8886 15.7064 38.8067 15.9233 38.7199 16.1401C38.6369 16.35 38.5645 16.5639 38.5031 16.7811C38.3296 17.2196 38.1609 17.6486 37.9874 18.0726C37.8171 18.5034 37.6207 18.9235 37.3995 19.3305C37.3132 19.5352 37.215 19.7347 37.1055 19.928C36.9947 20.116 36.879 20.3184 36.7682 20.5208C36.5116 20.9173 36.2179 21.2884 35.8911 21.6292C35.7432 21.7965 35.5625 21.9316 35.3602 22.0261C35.1579 22.1206 34.9384 22.1725 34.7152 22.1786C34.5061 22.1699 34.3019 22.1127 34.1187 22.0115C33.9355 21.9103 33.7784 21.7679 33.6598 21.5955C33.3941 21.26 33.1872 20.882 33.0477 20.4774C32.9093 20.0979 32.8439 19.6957 32.855 19.2919V19.0991C32.855 18.969 32.855 18.8196 32.8887 18.6509C32.9224 18.4823 32.9176 18.2895 32.9465 18.0823L32.9658 18.0919ZM33.0959 38.9061C33.0938 39.111 33.1198 39.3153 33.173 39.5133C33.2282 39.7663 33.3123 40.0121 33.4236 40.2458C33.523 40.4716 33.6458 40.6865 33.7899 40.8868C33.8444 40.9707 33.915 41.0429 33.9978 41.0992C34.0805 41.1555 34.1737 41.1947 34.2718 41.2145H34.3489C34.44 41.2117 34.5296 41.1907 34.6124 41.1526C34.6952 41.1145 34.7695 41.0602 34.8308 40.9928C35.0669 40.8263 35.2374 40.5825 35.3127 40.3036C35.6465 39.747 35.9103 39.1514 36.0983 38.5302C36.3441 37.7784 36.5802 36.9447 36.8115 36.0242C37.0428 35.1037 37.2453 34.1351 37.438 33.1086C37.6308 32.0821 37.7995 31.0749 37.9489 30.0869C38.0983 29.099 38.2332 28.1592 38.3585 27.2821C38.4838 26.4051 38.5754 25.6292 38.6476 24.9786C37.6517 26.6685 36.7071 28.3809 35.8139 30.1158C34.92 31.8463 34.1767 33.6505 33.5923 35.5085L33.226 37.1808C33.1634 37.4651 33.1248 37.7061 33.1007 37.8989C33.0766 38.0916 33.0718 38.2314 33.0718 38.3085C33.0465 38.5038 33.0481 38.7016 33.0766 38.8964L33.0959 38.9061ZM43.5247 18.7618C43.6055 17.6592 43.7666 16.5639 44.0066 15.4847C44.2508 14.4245 44.5351 13.3498 44.8596 12.2607C44.9174 12.1354 45.1198 12.0631 45.4765 12.0486C45.8331 12.0342 46.1463 12.0486 46.4403 12.0486H46.715L46.821 12.2896C46.8102 12.439 46.7657 12.5839 46.6909 12.7137C46.4909 13.1816 46.3298 13.6651 46.209 14.1594C46.0844 14.6597 45.9879 15.1665 45.9198 15.6775L45.7512 17.2389L45.621 18.8003L45.5439 21.1087V21.4798C45.5394 21.6047 45.5233 21.729 45.4957 21.8509L45.5343 21.7738C45.7126 21.234 45.9198 20.6702 46.1608 20.0919C46.6407 18.9313 47.3046 17.8556 48.127 16.9064C48.5307 16.4377 49.0076 16.0374 49.539 15.7209L49.9149 15.5763C50.0357 15.5264 50.1618 15.4909 50.2908 15.4703H50.4499C50.5475 15.4776 50.6443 15.4937 50.739 15.5185C50.874 15.5588 50.9902 15.646 51.0667 15.7642C51.199 15.9447 51.279 16.1582 51.2981 16.3811C51.3289 16.6078 51.3418 16.8367 51.3366 17.0654C51.3366 17.3305 51.3366 17.5811 51.2884 17.8317C51.2402 18.0823 51.2402 18.3136 51.2065 18.5931C51.1728 18.8726 51.1342 19.157 51.1005 19.4317C51.0629 19.7098 51.0403 19.9897 51.033 20.2702C50.9944 20.6075 50.9655 20.8822 50.9463 21.0895C50.927 21.2967 50.9125 21.4557 50.9125 21.5714V21.8846C50.91 21.9914 50.9197 22.0981 50.9414 22.2027C50.9337 22.2941 50.9337 22.386 50.9414 22.4774C50.9529 22.5697 50.969 22.6614 50.9896 22.7521C50.9698 22.8824 50.978 23.0155 51.0137 23.1424L51.0523 23.1858C51.0999 23.1741 51.1422 23.147 51.1728 23.1087C51.2592 23.0355 51.3298 22.9452 51.38 22.8437C51.6357 22.5411 51.8497 22.2056 52.0161 21.8461C52.1992 21.4605 52.3631 21.0991 52.498 20.7666C52.7245 20.2847 52.9462 19.8027 53.1583 19.2774C53.3703 18.7522 53.5872 18.2702 53.8137 17.7546C53.8639 17.6182 53.9506 17.4982 54.0643 17.4076L54.1414 17.3305H54.2233L54.2619 17.2919L54.3004 17.3353V17.3739H54.257C54.2951 17.4007 54.3253 17.4372 54.3448 17.4795C54.3642 17.5218 54.3722 17.5685 54.3679 17.6148C54.3664 17.6734 54.3583 17.7316 54.3438 17.7883C54.3438 17.8558 54.3052 17.9377 54.2763 18.0437L52.9607 21.0943C52.8209 21.3497 52.6956 21.5762 52.58 21.8461C52.4691 22.0911 52.3436 22.3293 52.2041 22.5593C52.0861 22.7945 51.9474 23.0187 51.7896 23.2292C51.5891 23.4889 51.3701 23.7337 51.1342 23.9617C50.9117 24.1971 50.6681 24.4117 50.4065 24.6027C50.2183 24.7612 49.9927 24.869 49.7511 24.9159C49.4089 24.9159 49.1969 24.6605 49.1101 24.1882C49.0635 23.9291 49.0458 23.6657 49.0571 23.4027C49.0605 23.2784 49.0718 23.1545 49.0909 23.0316C49.0909 22.9159 49.115 22.7906 49.1198 22.6605L49.2836 21.2581C49.3511 20.7762 49.4137 20.2943 49.4668 19.8509C49.5198 19.4076 49.5583 18.9256 49.5728 18.4823C49.5834 18.28 49.5834 18.0773 49.5728 17.8751C49.5686 17.6765 49.5226 17.4811 49.4378 17.3016C49.4039 17.2247 49.3505 17.158 49.2829 17.1081C49.2153 17.0582 49.1358 17.0269 49.0523 17.0172C48.9866 17.0051 48.9188 17.0152 48.8595 17.0462C48.6612 17.1032 48.4901 17.2298 48.3776 17.4028C48.2503 17.5818 48.1135 17.7539 47.968 17.9184C47.2014 18.9851 46.6003 20.1614 46.1849 21.4075C45.7682 22.6491 45.4175 23.9119 45.1343 25.1906C45.1386 25.2277 45.1341 25.2653 45.1213 25.3004C45.1086 25.3356 45.0878 25.3672 45.0607 25.3929C45.0336 25.4186 45.0009 25.4377 44.9651 25.4486C44.9294 25.4595 44.8916 25.4619 44.8548 25.4557C44.8395 25.4547 44.8246 25.4504 44.8112 25.4429C44.7979 25.4353 44.7864 25.4249 44.7777 25.4123C44.7613 25.4266 44.7422 25.4374 44.7214 25.4441C44.7007 25.4507 44.6788 25.453 44.6572 25.4508H44.5415C44.5126 25.4508 44.4741 25.4219 44.4259 25.3689L44.0066 23.7882C43.9582 23.6541 43.9243 23.5151 43.9054 23.3738C43.8813 23.2292 43.862 23.0894 43.8379 22.9593L43.6741 22.1304C43.5878 21.5766 43.5331 21.0182 43.5102 20.4582C43.4861 19.8943 43.4861 19.3256 43.5054 18.7522L43.5247 18.7618ZM53.7559 18.6702L54.1221 17.1184C54.3729 16.3885 54.6774 15.6782 55.0329 14.9932C55.3899 14.3157 55.8819 13.7187 56.4787 13.239C56.5076 13.239 56.5558 13.239 56.6329 13.239C56.719 13.2878 56.797 13.3496 56.8642 13.4221C56.945 13.5125 57.0014 13.622 57.0281 13.7402C57.045 13.8129 57.0474 13.8883 57.035 13.9619C57.0226 14.0355 56.9957 14.1059 56.9558 14.1691C56.4485 15.6014 56.0395 17.0666 55.7317 18.5546C55.4329 20.01 55.1807 21.5168 54.9751 23.075L55.1004 22.7666C55.5052 21.6838 55.9197 20.6075 56.3438 19.5377C56.7694 18.4723 57.2636 17.4356 57.8233 16.4341C58.0254 16.102 58.2441 15.7803 58.4787 15.4703C58.692 15.1584 58.9677 14.8943 59.2883 14.6944C59.4645 14.5758 59.6603 14.4894 59.8666 14.439C59.9622 14.4164 60.0615 14.4133 60.1583 14.4298C60.2552 14.4464 60.3477 14.4823 60.4305 14.5353C60.6145 14.6247 60.7625 14.7744 60.8497 14.9594C60.949 15.1676 61.0203 15.388 61.0618 15.6148C61.1049 15.8487 61.1291 16.0856 61.1341 16.3233C61.1341 16.5594 61.1341 16.7666 61.1341 16.9498L61.0569 19.3594C61.0569 19.5955 61.0569 19.8413 61.0569 20.1063C61.059 20.3506 61.1115 20.5918 61.2112 20.8148L61.2497 20.8967L61.6545 20.4774L61.9822 20.0967L63.3316 18.3811C63.4666 18.2269 63.587 18.0823 63.6979 17.9425C63.8096 17.8001 63.9321 17.6664 64.0641 17.5425L64.2473 17.3546C64.3117 17.2802 64.3864 17.2153 64.4689 17.1618C64.5415 17.0797 64.6425 17.028 64.7516 17.0173C64.8606 17.0066 64.9697 17.0376 65.0569 17.104C65.2167 17.2816 65.3192 17.5033 65.3509 17.7401C65.4404 18.0876 65.4745 18.447 65.4521 18.8052C65.4174 19.1605 65.3512 19.5121 65.2545 19.8557L65.1099 20.4148L65.0135 20.9593C64.9003 21.4569 64.9372 21.9768 65.1195 22.4533C65.1195 22.5063 65.1195 22.5304 65.1533 22.5304C65.187 22.5304 65.2738 22.5738 65.3509 22.5015L65.5533 22.3087C65.682 22.2 65.7926 22.0715 65.881 21.928C66.0962 21.6485 66.3083 21.369 66.5171 21.0895C66.7243 20.81 66.9316 20.516 67.1532 20.2076C67.3749 19.8991 67.5388 19.557 67.7364 19.2437C67.934 18.9305 68.1075 18.6172 68.2761 18.2799C68.4448 17.9425 68.6809 17.7257 68.8207 17.851C68.9604 17.9763 68.9171 18.2365 68.6954 18.6509C68.3034 19.316 67.9163 19.9586 67.534 20.5786C67.143 21.2079 66.7166 21.8145 66.2569 22.3955C65.8609 22.8508 65.3665 23.2101 64.8111 23.4461C64.7576 23.4982 64.6879 23.5305 64.6135 23.5376C64.5453 23.5448 64.4786 23.5627 64.4159 23.5906C64.3374 23.5833 64.2583 23.5833 64.1798 23.5906C64.1387 23.5961 64.0969 23.5929 64.057 23.5813C64.0172 23.5696 63.9802 23.5499 63.9485 23.5232C63.8571 23.4944 63.7727 23.447 63.7005 23.3839C63.6283 23.3209 63.57 23.2436 63.5292 23.1569C63.4307 22.9871 63.3699 22.7981 63.3509 22.6027C63.304 22.4367 63.2893 22.2633 63.3075 22.0919C63.3075 21.9376 63.3364 21.7786 63.3413 21.6099C63.3846 21.1666 63.4473 20.7184 63.5244 20.2654C63.6015 19.8124 63.6786 19.3642 63.7461 18.9208V18.6076C63.7225 18.6262 63.703 18.6495 63.6889 18.6761C63.6748 18.7026 63.6664 18.7318 63.6641 18.7618L62.3148 20.4774L61.9485 20.8967C61.7154 21.1872 61.4352 21.4364 61.1196 21.634C60.7997 21.8392 60.4428 21.98 60.069 22.0485C59.9757 22.0449 59.8833 22.0287 59.7943 22.0003C59.6914 21.9706 59.5982 21.9141 59.5244 21.8364C59.3765 21.7103 59.2564 21.5547 59.1718 21.3797C59.0871 21.2046 59.0399 21.0139 59.0329 20.8196C58.9769 20.4092 58.9511 19.9952 58.9558 19.5811C58.9367 19.3984 58.9367 19.2143 58.9558 19.0317L59.0281 16.8004C59.0519 16.6309 59.0519 16.459 59.0281 16.2895L58.9606 15.8944C58.9076 15.8413 58.8449 15.8944 58.7582 16.0293C58.7036 16.1326 58.6355 16.2282 58.5558 16.3136L58.3919 16.545L58.2618 16.8148C57.8716 17.4384 57.5362 18.0947 57.2594 18.7762C56.9462 19.475 56.657 20.1738 56.3823 20.8822C56.1076 21.5907 55.8474 22.328 55.5872 23.0316L55.1582 24.1159L54.7679 25.2388C54.7553 25.2728 54.7358 25.3038 54.7106 25.3298C54.6854 25.3558 54.6551 25.3763 54.6215 25.3899C54.588 25.4035 54.5519 25.4099 54.5157 25.4088C54.4795 25.4077 54.4439 25.399 54.4113 25.3834C54.3495 25.3232 54.2778 25.2743 54.1992 25.2388C54.1214 25.2046 54.051 25.1555 53.992 25.0942C53.9163 24.9673 53.8671 24.8263 53.8474 24.6798C53.8276 24.5381 53.792 24.3991 53.7414 24.2653L53.6787 23.8701C53.6442 23.7695 53.6343 23.6621 53.6498 23.5569C53.6498 23.5039 53.6498 23.475 53.6113 23.475C53.5736 23.2082 53.5511 22.9395 53.5438 22.6702C53.5438 22.4244 53.5438 22.1545 53.5101 21.8654C53.4921 21.3238 53.5034 20.7816 53.5438 20.2413C53.6016 19.7112 53.6643 19.1811 53.7366 18.6606L53.7559 18.6702ZM68.5026 18.2654C68.5701 17.851 68.6665 17.3642 68.8062 16.8196C68.946 16.2751 68.7147 17.0847 68.8689 16.5112C69.055 15.9676 69.3231 15.4557 69.6641 14.9932C69.9245 14.5654 70.2708 14.1962 70.6809 13.9088C71.0527 13.6182 71.5152 13.468 71.9869 13.4848C72.4203 13.482 72.8452 13.6041 73.211 13.8366C73.5292 14.0584 73.7942 14.3481 73.9869 14.6847C74.1903 15.0426 74.3519 15.4226 74.4688 15.8173C74.6145 16.2068 74.7384 16.6042 74.8399 17.0076V17.1233C74.8399 17.3594 74.7628 17.4992 74.6327 17.5473C74.5025 17.5955 74.3772 17.398 74.3339 17.1088C74.2829 16.5901 74.1323 16.0861 73.8905 15.6245C73.7266 15.0414 73.4616 14.7474 73.0953 14.7329C72.9411 14.7329 72.8495 14.7329 72.8206 14.7667C72.4272 14.8735 72.0851 15.118 71.8568 15.4558C71.5705 15.8585 71.3266 16.2897 71.1291 16.7425C70.917 17.2245 71.1291 16.6558 70.9797 17.1329C70.8303 17.61 70.8592 17.6919 70.7966 17.9811C70.7339 18.3425 70.6761 18.6799 70.6279 18.9931C70.5798 19.2898 70.5492 19.5892 70.5363 19.8895C70.5221 20.3103 70.5479 20.7314 70.6134 21.1473C70.6134 21.3063 70.6568 21.4413 70.6761 21.5617C70.6954 21.6822 70.7243 21.7931 70.7436 21.8943C70.7925 22.261 70.8864 22.6203 71.0231 22.9641C71.1578 23.3146 71.3307 23.6491 71.5387 23.9617C71.6382 24.0828 71.7613 24.1824 71.9005 24.2545C72.0397 24.3266 72.192 24.3696 72.3484 24.381C72.4679 24.3727 72.586 24.3501 72.7002 24.3135C73.0845 24.1933 73.4216 23.9556 73.664 23.634C73.9536 23.2436 74.1587 22.7972 74.2664 22.3232C74.4254 21.7834 74.4062 21.3593 74.5122 20.8774C74.614 20.4406 74.6753 19.9954 74.6953 19.5473C74.7698 19.0586 74.7098 18.5588 74.5218 18.1016C74.499 18.0816 74.4804 18.0572 74.4671 18.0299C74.4539 18.0026 74.4462 17.9728 74.4447 17.9425C74.4654 17.836 74.5257 17.7413 74.6134 17.6775C74.6134 17.6486 74.7676 17.6775 74.8447 17.6775C74.9218 17.6775 74.9122 17.6775 74.9652 17.7257L75.2977 18.2461L75.6736 18.7281C75.9433 18.9917 76.2746 19.1839 76.6374 19.2871C76.7814 19.3315 76.9303 19.3574 77.0808 19.3642C77.1486 19.3773 77.2188 19.3653 77.2784 19.3305C77.4438 19.3064 77.5974 19.2304 77.7169 19.1136C77.8736 18.9904 78.0217 18.8567 78.1603 18.7136C78.2952 18.5787 78.4446 18.4293 78.6037 18.2799C78.6826 18.2141 78.7806 18.1752 78.8832 18.169C78.923 18.173 78.9613 18.1865 78.9948 18.2083C79.0283 18.2301 79.0562 18.2596 79.076 18.2943C79.1039 18.3424 79.1157 18.3981 79.1097 18.4534C79.0882 18.5915 79.0139 18.7159 78.9025 18.8003C78.7675 18.9256 78.623 19.0654 78.4736 19.2148C78.329 19.3706 78.1673 19.5096 77.9916 19.6292C77.8318 19.7925 77.6209 19.8962 77.3941 19.9232C77.3004 19.9852 77.1867 20.0093 77.076 19.9907C76.8688 19.9907 76.7531 19.9907 76.729 19.9377C76.5176 19.9057 76.3083 19.8607 76.1025 19.8027C76.0158 19.7449 75.9194 19.6919 75.8134 19.6341L75.3314 19.1859C75.3314 19.2148 75.264 19.557 75.2495 19.7353C75.1894 20.6278 75.0277 21.5106 74.7676 22.3666C74.464 23.3834 74.5025 23.6292 73.3748 24.6846C73.1271 24.8496 72.851 24.9672 72.5604 25.0316C72.2824 25.1052 71.9986 25.1552 71.7122 25.181C71.5525 25.2055 71.39 25.2055 71.2303 25.181C70.8089 25.1783 70.3948 25.0707 70.0255 24.8677C69.7012 24.6821 69.4176 24.4329 69.1918 24.1352C69.0709 23.9748 68.9705 23.8 68.893 23.6147L68.6761 23.0605C68.559 22.6667 68.4751 22.2636 68.4255 21.8557C68.3722 21.4577 68.3401 21.0572 68.3291 20.6557C68.3013 20.5407 68.2916 20.422 68.3002 20.3039V19.9521C68.2929 19.3814 68.3544 18.8118 68.4833 18.2558L68.5026 18.2654ZM78.6471 18.3666C78.7265 17.8487 78.8408 17.3367 78.9892 16.8341C79.1553 16.2694 79.3648 15.7184 79.6157 15.1859C79.8591 14.6556 80.1666 14.1571 80.5314 13.7016C80.8588 13.2765 81.2706 12.9237 81.741 12.6655C81.8117 12.6173 81.8924 12.586 81.9771 12.5739C82.0635 12.5628 82.1461 12.5314 82.2181 12.4824C82.433 12.4071 82.6605 12.3743 82.888 12.386C83.2556 12.4155 83.6165 12.5017 83.9578 12.6414C84.4319 12.8473 84.8059 13.2317 84.9988 13.7113C85.047 13.8462 85.0903 13.9908 85.1385 14.1498C85.1866 14.3071 85.2204 14.4684 85.2397 14.6317C85.2637 14.7688 85.2798 14.9072 85.2879 15.0462C85.2879 15.1908 85.2879 15.3546 85.2879 15.5281V15.9618C85.2862 16.1238 85.2684 16.2852 85.2349 16.4438C85.2349 16.6799 85.1433 16.7907 84.9891 16.7859H84.9506C84.8891 16.7603 84.8376 16.7155 84.8037 16.6581C84.7698 16.6008 84.7554 16.534 84.7626 16.4678V16.3474C84.7964 16.063 84.8205 15.7883 84.8301 15.5281C84.8387 15.2651 84.8209 15.002 84.7771 14.7426C84.7322 14.444 84.636 14.1554 84.4928 13.8896C84.4373 13.7737 84.358 13.6708 84.26 13.5878C84.162 13.5047 84.0475 13.4433 83.9241 13.4076H83.8036C83.6377 13.408 83.4737 13.4424 83.3217 13.5089C83.1032 13.6626 82.922 13.8636 82.7916 14.0968C82.6518 14.3426 82.5121 14.5787 82.3771 14.8486C82.2636 15.0803 82.1638 15.3184 82.0783 15.5618C81.9916 15.8076 81.9048 16.0438 81.8181 16.3185L81.3844 17.9281C81.2231 18.7392 81.1168 19.5604 81.0663 20.3859V20.8148C81.0572 20.9472 81.0669 21.0803 81.0952 21.2099C81.0719 21.7524 81.132 22.2953 81.2735 22.8196C81.3716 23.2612 81.5657 23.6759 81.8422 24.034C81.9604 24.1945 82.1142 24.3254 82.2914 24.4165C82.4686 24.5076 82.6646 24.5565 82.8639 24.5593C83.0922 24.5432 83.3142 24.4774 83.5145 24.3665C83.7208 24.2533 83.916 24.121 84.0976 23.9714C84.4487 23.6388 84.7622 23.2687 85.0325 22.8678C85.2223 22.6806 85.3759 22.4601 85.4855 22.2172L85.9048 21.528C86.1554 21.0461 86.3867 20.5979 86.6373 20.1208C86.8879 19.6437 87.1192 19.157 87.3698 18.675C87.4566 18.4437 87.5385 18.3281 87.6156 18.3329C87.6927 18.3377 87.7457 18.3859 87.7698 18.4919C87.8027 18.5229 87.8291 18.5602 87.8473 18.6016C87.8655 18.643 87.8752 18.6877 87.8758 18.7329L87.7891 18.9642C87.5642 19.4815 87.3329 19.9827 87.0951 20.4678C86.8557 20.9671 86.5836 21.4501 86.2807 21.9135C86.0264 22.373 85.7381 22.8128 85.418 23.2292C85.0979 23.6691 84.7364 24.0773 84.3385 24.4485L84.2181 24.5593C84.003 24.7653 83.7478 24.9247 83.4684 25.0275C83.1889 25.1303 82.8912 25.1744 82.594 25.1569C81.9089 25.1256 81.2483 24.8925 80.6952 24.487C80.0996 24.0866 79.6048 23.5539 79.2495 22.9304C79.0761 22.5845 78.931 22.2251 78.8157 21.8557C78.6952 21.4848 78.6161 21.1018 78.5796 20.7136C78.5796 20.5304 78.5458 20.3328 78.541 20.1256C78.5362 19.9184 78.541 19.7064 78.541 19.4991V18.9497C78.5507 18.7498 78.5798 18.5513 78.6278 18.357L78.6471 18.3666ZM87.2783 19.8557C87.3795 18.4726 87.553 16.9112 87.8084 15.1715C88.0678 13.408 88.4201 11.6594 88.8638 9.933C89.3028 8.22927 89.8632 6.55916 90.5409 4.93549C91.1141 3.50081 91.9201 2.17052 92.9264 0.998193C93.0324 0.896989 93.1432 0.805424 93.2493 0.71386L93.6107 0.434347C93.8356 0.239158 94.1114 0.112107 94.4059 0.0680858C94.8339 -0.0452602 95.2871 -0.0165079 95.6974 0.150013C96.142 0.307147 96.5195 0.61152 96.7673 1.01265C96.9227 1.26785 97.032 1.54844 97.0902 1.84155C97.1151 1.98489 97.1296 2.12985 97.1335 2.27528C97.1335 2.43432 97.1335 2.57889 97.1335 2.70901C97.0459 3.91513 96.756 5.0979 96.2757 6.20776C95.707 7.64126 95.0636 9.04396 94.348 10.4101C93.5962 11.8559 92.8059 13.2245 91.977 14.545C91.1481 15.8654 90.4204 16.9546 89.7939 17.822C89.6888 17.9912 89.5712 18.1523 89.4421 18.304C89.3647 18.3896 89.2773 18.4656 89.1818 18.5305L88.5794 21.7834L88.1216 24.94L87.977 25.7593C88.4397 24.442 88.9136 23.1569 89.3987 21.9039C89.8974 20.6399 90.4621 19.4029 91.0902 18.1979L91.5095 17.4269L91.9625 16.6992L92.2131 16.357C92.2633 16.3069 92.3041 16.2481 92.3336 16.1835C92.3631 16.1178 92.4058 16.0587 92.4589 16.01L92.7047 15.6293C92.7773 15.5053 92.8918 15.4113 93.0276 15.3642C93.0852 15.3191 93.1524 15.2877 93.224 15.2723C93.2957 15.257 93.3698 15.2583 93.4409 15.2759C93.512 15.2936 93.5781 15.3272 93.6343 15.3742C93.6904 15.4213 93.7351 15.4805 93.7649 15.5474C93.9509 15.8793 94.0535 16.2514 94.0637 16.6317C94.1069 17.0302 94.1263 17.4309 94.1215 17.8317V18.3136C94.1246 18.4584 94.1067 18.6028 94.0685 18.7425C94.0685 19.0317 94.0396 19.3305 94.0155 19.6437C93.9914 19.957 93.9625 20.2557 93.9288 20.5401C93.8807 20.6776 93.8626 20.8239 93.8757 20.969V21.4027C93.838 21.687 93.8283 21.9743 93.8468 22.2605C93.8355 22.4371 93.8355 22.6141 93.8468 22.7906C93.8506 22.878 93.8722 22.9638 93.9103 23.0425C93.9484 23.1212 94.0023 23.1913 94.0685 23.2485C94.0999 23.3006 94.1457 23.3426 94.2005 23.3691C94.2553 23.3956 94.3166 23.4056 94.377 23.3979C94.4984 23.3901 94.6176 23.3608 94.7287 23.3111C94.8435 23.2557 94.9465 23.1788 95.0324 23.0846C95.1287 22.9834 95.2155 22.8822 95.2974 22.781C95.6194 22.3253 95.8773 21.8275 96.0637 21.3015C96.2757 20.7184 96.4588 20.1835 96.6082 19.6919C96.6554 19.5282 96.7117 19.3673 96.7769 19.21C96.8216 19.1028 96.8782 19.0009 96.9456 18.9064C97.0564 18.7232 97.148 18.6654 97.2251 18.7184C97.3022 18.7714 97.2829 18.8919 97.254 19.0702C97.2198 19.4142 97.1487 19.7535 97.042 20.0823C96.9041 20.5756 96.7318 21.0588 96.5263 21.528C96.3256 21.9958 96.1004 22.4526 95.8516 22.8967C95.6973 23.2325 95.4497 23.5169 95.1384 23.7159C94.9736 23.8504 94.7835 23.9504 94.5793 24.0099L94.2468 24.0774C94.1504 24.0774 94.0396 24.1256 93.9095 24.1448C93.7192 24.1408 93.53 24.1149 93.3456 24.0677C93.1748 24.0227 93.0208 23.9289 92.9023 23.7979C92.7294 23.6643 92.5988 23.4835 92.5264 23.2774C92.4308 23.0982 92.3656 22.9044 92.3336 22.7039C92.2975 22.5013 92.2718 22.2971 92.2565 22.0919C92.2324 21.9617 92.2179 21.8413 92.2083 21.7401C92.1987 21.6389 92.2083 21.5569 92.2083 21.5039L92.2324 20.916C92.2545 20.1452 92.3189 19.3762 92.4252 18.6124C92.4252 18.4003 92.4252 18.2076 92.4637 18.0244C92.5023 17.8413 92.4975 17.6582 92.5023 17.4751V16.8871L92.3384 17.1184L92.1119 17.4654C92.0359 17.5734 91.9729 17.6898 91.924 17.8124L91.6926 18.1738C91.6233 18.2924 91.5605 18.4146 91.5047 18.5401C91.3649 18.7955 91.2348 19.0558 91.1095 19.3112C90.9842 19.5666 90.8637 19.8268 90.7481 20.0823L90.0686 21.6292C89.6445 22.7087 89.2365 23.7914 88.8445 24.8774C88.4525 25.9633 88.059 27.0524 87.6638 28.1448C87.606 28.2749 87.5337 28.3424 87.4421 28.352C87.3505 28.3616 87.2783 28.3038 87.2301 28.1689C87.1995 28.1078 87.1893 28.0386 87.2011 27.9713C87.0746 26.9177 87.0311 25.8558 87.071 24.7954C87.071 23.9569 87.071 23.1376 87.1144 22.328C87.1578 21.5184 87.1963 20.6991 87.2783 19.8557ZM89.3987 17.4172C89.9706 16.6269 90.6646 15.5988 91.4806 14.3329C92.2967 13.0671 93.079 11.7354 93.8276 10.3378C94.5471 8.99838 95.1907 7.61952 95.7552 6.20776C96.2395 5.09225 96.5312 3.90273 96.6179 2.68974C96.6271 2.46092 96.6142 2.23174 96.5793 2.00541C96.5519 1.78442 96.4727 1.57305 96.348 1.38855L95.9287 0.983736C95.7853 0.886112 95.6195 0.826423 95.4468 0.810244C95.3482 0.76771 95.2407 0.749528 95.1336 0.757232H94.936L94.5793 0.940363C94.3962 1.01265 94.2998 1.08976 94.295 1.16687L94.1745 1.28253C94.0889 1.35537 94.0199 1.44576 93.9721 1.54758L93.7649 1.81746C93.7184 1.8573 93.6835 1.9089 93.6637 1.96685C93.6452 2.02677 93.6101 2.08024 93.5625 2.12107C93.005 3.27443 92.5221 4.4624 92.1167 5.67764C91.7116 6.88937 91.3706 8.12158 91.0951 9.36916C90.7625 10.7137 90.4397 12.0486 90.1312 13.3691C89.8228 14.6896 89.5722 16.0534 89.3698 17.4606L89.3987 17.4172ZM96.7817 19.2293C96.8813 18.5907 97.0745 17.9704 97.3552 17.3883C97.6045 16.7862 97.9984 16.2548 98.5022 15.8413C98.659 15.6238 98.8849 15.4658 99.1431 15.3932L99.4998 15.2486C99.5551 15.2561 99.6113 15.2442 99.6588 15.2149H99.7793C99.9265 15.2082 100.074 15.2336 100.21 15.2893C100.346 15.3451 100.469 15.4298 100.57 15.5377C100.748 15.7684 100.879 16.0321 100.955 16.3136C100.989 16.472 100.997 16.6347 100.979 16.7956C100.96 16.9281 100.929 17.0587 100.888 17.1859C100.806 17.3401 100.724 17.4124 100.647 17.4124C100.631 17.4115 100.617 17.4071 100.603 17.3996C100.59 17.3921 100.578 17.3816 100.57 17.369C100.535 17.3593 100.505 17.3384 100.484 17.3095C100.463 17.2807 100.453 17.2456 100.454 17.21C100.446 17.1283 100.463 17.0461 100.502 16.9739C100.565 16.8984 100.596 16.8018 100.589 16.704C100.602 16.6241 100.592 16.5422 100.56 16.4678C100.539 16.3937 100.5 16.3256 100.448 16.2694C100.395 16.2132 100.329 16.1706 100.256 16.145C100.235 16.1276 100.21 16.1148 100.184 16.1074C100.157 16.0999 100.129 16.0979 100.102 16.1016C100.047 16.0923 99.99 16.1043 99.9431 16.1353L99.6202 16.4389C99.512 16.5803 99.4393 16.7456 99.4082 16.9209L99.2299 17.4461L98.9552 18.6124C98.9215 18.8196 98.8877 19.0172 98.854 19.1955C98.8233 19.3803 98.7781 19.5624 98.719 19.7401C98.6323 20.1063 98.5504 20.4822 98.4877 20.8726C98.4216 21.2468 98.3829 21.6253 98.3721 22.0051C98.369 22.0257 98.3705 22.0467 98.3763 22.0666C98.3821 22.0866 98.3922 22.1051 98.4058 22.1208L98.4347 22.434C98.4293 22.4915 98.4359 22.5495 98.4541 22.6043C98.4724 22.659 98.5019 22.7094 98.5407 22.7521C98.5705 22.8098 98.6144 22.8591 98.6683 22.8953C98.7223 22.9315 98.7845 22.9536 98.8492 22.9593C98.9875 22.956 99.123 22.9196 99.2443 22.8533L99.2829 22.8196C99.3046 22.8217 99.3264 22.8194 99.3471 22.8128C99.3679 22.8061 99.387 22.7953 99.4034 22.781L100.015 22.0196C100.664 20.842 101.204 19.6081 101.63 18.3329C102.052 17.07 102.396 15.7825 102.661 14.4775C102.69 14.3185 102.758 14.2462 102.864 14.2462H102.941C102.962 14.2444 102.983 14.2474 103.003 14.2549C103.023 14.2624 103.041 14.2742 103.056 14.2896C103.13 14.2551 103.212 14.2434 103.292 14.2558C103.379 14.2661 103.464 14.2822 103.548 14.304C103.664 14.3329 103.731 14.4438 103.75 14.6269C103.777 14.729 103.787 14.8349 103.779 14.9402L103.75 15.904C103.726 16.5016 103.683 17.0847 103.611 17.6437C103.538 18.2028 103.471 18.7811 103.399 19.3786L103.124 21.6051C103.061 21.9666 103.018 22.2654 102.999 22.5015C102.979 22.7376 102.965 22.9063 102.96 22.9834C102.937 23.2061 102.937 23.4306 102.96 23.6533C102.98 23.9565 103.064 24.2521 103.206 24.5207C103.262 24.6394 103.337 24.7483 103.427 24.8436C103.512 24.9207 103.621 24.9651 103.736 24.9689C103.872 24.947 103.999 24.883 104.097 24.7858C104.153 24.7356 104.2 24.6771 104.237 24.6123C104.279 24.5507 104.327 24.4941 104.382 24.4436C104.495 24.3117 104.598 24.1716 104.69 24.0244C104.786 23.8737 104.864 23.7119 104.921 23.5424C105.18 23.0367 105.407 22.5152 105.601 21.981C105.803 21.4268 105.977 20.8919 106.126 20.3714L106.517 19.2485C106.574 19.1184 106.627 19.0558 106.68 19.0606C106.708 19.0569 106.735 19.0589 106.762 19.0664C106.788 19.0738 106.813 19.0866 106.835 19.104C106.882 19.1503 106.919 19.2058 106.944 19.2672C106.969 19.3286 106.981 19.3944 106.979 19.4606V19.4991C106.836 19.8602 106.712 20.2286 106.608 20.6027C106.505 20.9771 106.381 21.3455 106.237 21.7063C106.092 22.0678 105.957 22.4292 105.827 22.7906C105.698 23.1594 105.55 23.5214 105.384 23.875C105.244 24.1304 105.061 24.4292 104.844 24.7762C104.677 25.0578 104.435 25.2879 104.145 25.4412C104.092 25.4942 104.054 25.5183 104.025 25.5183C104.009 25.5322 103.991 25.5424 103.971 25.5483C103.951 25.5541 103.93 25.5554 103.909 25.5521L103.866 25.5906C103.765 25.6252 103.658 25.6351 103.553 25.6195C103.446 25.6277 103.339 25.6112 103.239 25.5713C103.039 25.5002 102.857 25.3868 102.705 25.2388C102.351 24.9455 102.092 24.5551 101.958 24.1159C101.818 23.6677 101.688 23.234 101.572 22.8099C101.511 22.3801 101.472 21.9474 101.456 21.5136C101.456 21.0943 101.456 20.6654 101.456 20.222C101.23 20.7039 101.013 21.1859 100.801 21.6292C100.582 22.0909 100.325 22.5341 100.035 22.9545L99.5528 23.4364C99.3956 23.638 99.1877 23.7943 98.9504 23.8894C98.8071 23.9169 98.6599 23.9169 98.5166 23.8894C98.3842 23.8998 98.2511 23.8818 98.1263 23.8364C97.8403 23.7484 97.5956 23.5602 97.4371 23.3063L97.1769 22.9015C97.1769 22.7184 97.1335 22.6268 97.1094 22.6268V22.7473L97.0034 22.5111C96.8161 21.978 96.7152 21.4183 96.7046 20.8533C96.7046 20.7232 96.6661 20.6027 96.6564 20.5015C96.6497 20.4101 96.6497 20.3183 96.6564 20.2268C96.6615 19.8942 96.7019 19.563 96.7769 19.2389L96.7817 19.2293Z" fill="#AF4125"/>
<path d="M49.5059 30.9893H51.355C51.772 30.9893 52.0898 31.0212 52.3086 31.085C52.6025 31.1715 52.8543 31.3254 53.064 31.5464C53.2736 31.7674 53.4331 32.0386 53.5425 32.3599C53.6519 32.6789 53.7065 33.0731 53.7065 33.5425C53.7065 33.9549 53.6553 34.3104 53.5527 34.6089C53.4274 34.9735 53.2485 35.2686 53.0161 35.4941C52.8407 35.665 52.6037 35.7983 52.3052 35.894C52.0819 35.9647 51.7834 36 51.4097 36H49.5059V30.9893ZM50.5176 31.8369V35.1558H51.2729C51.5555 35.1558 51.7594 35.1398 51.8848 35.1079C52.0488 35.0669 52.1844 34.9974 52.2915 34.8994C52.4009 34.8014 52.4897 34.6408 52.5581 34.4175C52.6265 34.1919 52.6606 33.8854 52.6606 33.498C52.6606 33.1107 52.6265 32.8133 52.5581 32.606C52.4897 32.3986 52.394 32.2368 52.271 32.1206C52.1479 32.0044 51.9919 31.9258 51.8027 31.8848C51.6615 31.8529 51.3846 31.8369 50.9722 31.8369H50.5176ZM54.5679 36V30.9893H58.2832V31.8369H55.5796V32.9478H58.0952V33.792H55.5796V35.1558H58.3789V36H54.5679ZM58.9805 34.3696L59.9648 34.2739C60.0241 34.6043 60.1437 34.847 60.3237 35.002C60.506 35.1569 60.751 35.2344 61.0586 35.2344C61.3844 35.2344 61.6294 35.166 61.7935 35.0293C61.9598 34.8903 62.043 34.7285 62.043 34.5439C62.043 34.4255 62.0076 34.3252 61.937 34.2432C61.8687 34.1589 61.7479 34.0859 61.5747 34.0244C61.4562 33.9834 61.1862 33.9105 60.7646 33.8057C60.2223 33.6712 59.8418 33.506 59.623 33.3101C59.3154 33.0343 59.1616 32.6982 59.1616 32.3018C59.1616 32.0465 59.2334 31.8084 59.377 31.5874C59.5228 31.3641 59.7313 31.1943 60.0024 31.0781C60.2759 30.9619 60.6051 30.9038 60.9902 30.9038C61.6191 30.9038 62.092 31.0417 62.4087 31.3174C62.7277 31.5931 62.8952 31.9611 62.9111 32.4214L61.8994 32.4658C61.8561 32.2083 61.7627 32.0238 61.6191 31.9121C61.4779 31.7982 61.2648 31.7412 60.98 31.7412C60.686 31.7412 60.4559 31.8016 60.2896 31.9224C60.1825 31.9998 60.1289 32.1035 60.1289 32.2334C60.1289 32.3519 60.179 32.4533 60.2793 32.5376C60.4069 32.6447 60.7168 32.7563 61.209 32.8726C61.7012 32.9888 62.0646 33.1095 62.2993 33.2349C62.5363 33.3579 62.7209 33.5277 62.853 33.7441C62.9875 33.9583 63.0547 34.2238 63.0547 34.5405C63.0547 34.8276 62.9749 35.0965 62.8154 35.3472C62.6559 35.5978 62.4303 35.7847 62.1387 35.9077C61.847 36.0285 61.4836 36.0889 61.0483 36.0889C60.4149 36.0889 59.9284 35.943 59.5889 35.6514C59.2493 35.3574 59.0465 34.9302 58.9805 34.3696ZM63.875 36V30.9893H64.8867V36H63.875ZM68.1851 34.1577V33.3135H70.3657V35.3096C70.1538 35.5146 69.8462 35.6958 69.4429 35.853C69.0418 36.008 68.6351 36.0854 68.2227 36.0854C67.6986 36.0854 67.2417 35.9761 66.8521 35.7573C66.4624 35.5363 66.1696 35.2218 65.9736 34.814C65.7777 34.4038 65.6797 33.9583 65.6797 33.4775C65.6797 32.9557 65.7891 32.492 66.0078 32.0864C66.2266 31.6808 66.5467 31.3698 66.9683 31.1533C67.2896 30.987 67.6895 30.9038 68.168 30.9038C68.79 30.9038 69.2754 31.0348 69.624 31.2969C69.9749 31.5566 70.2005 31.9167 70.3008 32.377L69.2959 32.5649C69.2253 32.3188 69.092 32.1252 68.896 31.9839C68.7023 31.8403 68.4596 31.7686 68.168 31.7686C67.7259 31.7686 67.3739 31.9087 67.1118 32.189C66.8521 32.4692 66.7222 32.8851 66.7222 33.4365C66.7222 34.0312 66.8543 34.4779 67.1187 34.7764C67.383 35.0726 67.7293 35.2207 68.1577 35.2207C68.3696 35.2207 68.5815 35.1797 68.7935 35.0977C69.0076 35.0133 69.1911 34.9119 69.3438 34.7935V34.1577H68.1851ZM71.3125 36V30.9893H72.2969L74.3477 34.3354V30.9893H75.2876V36H74.2725L72.2524 32.7324V36H71.3125ZM78.3159 36V30.9893H81.751V31.8369H79.3276V33.0229H81.4194V33.8706H79.3276V36H78.3159ZM82.3833 33.5254C82.3833 33.015 82.4596 32.5866 82.6123 32.2402C82.7262 31.985 82.8812 31.756 83.0771 31.5532C83.2754 31.3504 83.4919 31.2 83.7266 31.1021C84.0387 30.9699 84.3988 30.9038 84.8066 30.9038C85.5449 30.9038 86.1351 31.1328 86.5771 31.5908C87.0215 32.0488 87.2437 32.6857 87.2437 33.5015C87.2437 34.3104 87.0238 34.9438 86.584 35.4019C86.1442 35.8576 85.5563 36.0854 84.8203 36.0854C84.0752 36.0854 83.4827 35.8587 83.043 35.4053C82.6032 34.9495 82.3833 34.3229 82.3833 33.5254ZM83.4258 33.4912C83.4258 34.0586 83.5568 34.4893 83.8188 34.7832C84.0809 35.0749 84.4136 35.2207 84.8169 35.2207C85.2202 35.2207 85.5506 35.076 85.8081 34.7866C86.0679 34.495 86.1978 34.0586 86.1978 33.4775C86.1978 32.9033 86.0713 32.4749 85.8184 32.1924C85.5677 31.9098 85.2339 31.7686 84.8169 31.7686C84.3999 31.7686 84.0638 31.9121 83.8086 32.1992C83.5534 32.484 83.4258 32.9147 83.4258 33.4912ZM88.04 36V30.9893H90.1694C90.7049 30.9893 91.0934 31.0348 91.335 31.126C91.5788 31.2148 91.7736 31.3743 91.9194 31.6045C92.0653 31.8346 92.1382 32.0978 92.1382 32.394C92.1382 32.77 92.0277 33.0811 91.8066 33.3271C91.5856 33.571 91.2552 33.7248 90.8154 33.7886C91.0342 33.9162 91.2142 34.0563 91.3555 34.209C91.499 34.3617 91.6916 34.6328 91.9331 35.0225L92.5449 36H91.335L90.6035 34.9097C90.3438 34.52 90.166 34.2751 90.0703 34.1748C89.9746 34.0723 89.8732 34.0028 89.7661 33.9663C89.659 33.9276 89.4893 33.9082 89.2568 33.9082H89.0518V36H88.04ZM89.0518 33.1084H89.8003C90.2856 33.1084 90.5887 33.0879 90.7095 33.0469C90.8302 33.0059 90.9248 32.9352 90.9932 32.835C91.0615 32.7347 91.0957 32.6094 91.0957 32.459C91.0957 32.2904 91.0501 32.1548 90.959 32.0522C90.8701 31.9474 90.7437 31.8813 90.5796 31.854C90.4976 31.8426 90.2515 31.8369 89.8413 31.8369H89.0518V33.1084ZM99.3022 36H98.2017L97.7642 34.8618H95.7612L95.3477 36H94.2744L96.2261 30.9893H97.2959L99.3022 36ZM97.4395 34.0176L96.749 32.1582L96.0723 34.0176H97.4395ZM99.8696 36V31.0303H100.881V35.1558H103.397V36H99.8696ZM104.149 36V31.0303H105.161V35.1558H107.676V36H104.149Z" fill="#EAE1CB"/>
</svg>
